<?xml version="1.0" standalone="no"?>
<!DOCTYPE svg PUBLIC "-//W3C//DTD SVG 20010904//EN"
 "http://www.w3.org/TR/2001/REC-SVG-20010904/DTD/svg10.dtd">
<svg version="1.0" xmlns="http://www.w3.org/2000/svg"
 width="512.000000pt" height="512.000000pt" viewBox="0 0 512.000000 512.000000"
 preserveAspectRatio="xMidYMid meet">
<metadata>
Created by potrace 1.11, written by Peter Selinger 2001-2013
</metadata>
<g transform="translate(0.000000,512.000000) scale(0.100000,-0.100000)"
fill="#000000" stroke="none">
<path d="M2340 5034 c-361 -44 -617 -118 -895 -259 -246 -124 -448 -270 -639
-461 -373 -374 -609 -836 -698 -1369 -32 -189 -32 -581 0 -770 89 -533 325
-995 698 -1369 372 -372 836 -609 1369 -698 189 -32 581 -32 770 0 533 89 997
326 1369 698 373 374 609 836 698 1369 32 189 32 581 0 770 -45 271 -119 497
-237 730 -363 717 -1029 1204 -1825 1336 -94 16 -182 22 -350 24 -124 2 -241
1 -260 -1z m1500 -1699 l0 -145 -230 0 -230 0 0 -775 0 -775 -150 0 -150 0 0
775 0 775 -220 0 -220 0 0 145 0 145 600 0 600 0 0 -145z m-1379 -780 c210
-490 384 -896 386 -903 4 -10 -25 -12 -137 -10 l-142 3 -97 230 -96 230 -306
3 -306 2 -98 -235 -97 -235 -139 0 c-77 0 -139 3 -139 7 0 20 775 1812 782
1805 4 -4 179 -408 389 -897z"/>
<path d="M2046 2803 c-8 -27 -49 -129 -91 -228 -42 -99 -79 -190 -82 -202 l-5
-23 201 0 c110 0 201 2 201 5 0 3 -43 108 -95 234 -52 127 -95 237 -95 245 0
33 -20 14 -34 -31z"/>
</g>
</svg>
